<?xml version="1.0" standalone="no"?>
<!DOCTYPE svg PUBLIC "-//W3C//DTD SVG 20010904//EN"
 "http://www.w3.org/TR/2001/REC-SVG-20010904/DTD/svg10.dtd">
<svg version="1.0" xmlns="http://www.w3.org/2000/svg"
 width="500.000000pt" height="500.000000pt" viewBox="0 0 500.000000 500.000000"
 preserveAspectRatio="xMidYMid meet">

<g transform="translate(0.000000,500.000000) scale(0.100000,-0.100000)"
fill="#000000" stroke="none">
<path d="M0 2500 l0 -2500 2500 0 2500 0 0 2500 0 2500 -2500 0 -2500 0 0
-2500z m2543 824 c111 -57 486 -280 505 -300 22 -25 22 -28 22 -330 0 -184 -4
-313 -10 -324 -10 -19 -147 -100 -169 -100 -6 0 -90 45 -186 101 -128 74 -184
101 -209 101 -43 0 -196 -86 -196 -110 0 -11 32 -35 85 -66 90 -51 112 -54
181 -26 28 12 35 10 102 -29 40 -23 72 -48 72 -56 0 -19 -210 -135 -246 -135
-19 0 -112 48 -269 139 -237 138 -240 140 -240 173 0 32 3 35 240 172 166 97
249 140 271 140 20 0 87 -33 207 -102 96 -56 178 -102 181 -102 3 0 6 102 6
228 l0 227 -172 100 c-94 55 -186 104 -204 109 -31 9 -46 2 -196 -84 -90 -51
-175 -102 -190 -112 l-28 -19 0 -148 c0 -128 -2 -150 -17 -163 -34 -28 -133
-79 -143 -73 -6 4 -10 94 -10 244 0 210 2 240 17 252 36 31 529 309 546 309
10 0 32 -7 50 -16z"/>
</g>
</svg>
