<?xml version="1.0" standalone="no"?>
<!DOCTYPE svg PUBLIC "-//W3C//DTD SVG 20010904//EN"
 "http://www.w3.org/TR/2001/REC-SVG-20010904/DTD/svg10.dtd">
<svg version="1.0" xmlns="http://www.w3.org/2000/svg"
 width="500.000000pt" height="500.000000pt" viewBox="0 0 500.000000 500.000000"
 preserveAspectRatio="xMidYMid meet">

<g transform="translate(0.000000,500.000000) scale(0.100000,-0.100000)"
fill="#000000" stroke="none">
<path d="M2240 3132 l-235 -137 -3 -292 -2 -291 27 -20 c79 -54 453 -262 472
-262 24 0 468 253 489 278 8 10 12 52 12 121 l0 106 -40 23 c-21 12 -44 22
-49 22 -7 0 -11 -38 -11 -103 0 -87 -3 -106 -17 -119 -30 -26 -369 -218 -384
-218 -16 0 -352 192 -381 218 -16 14 -18 38 -18 242 0 204 2 228 18 242 29 26
365 218 381 218 15 0 353 -192 383 -218 13 -11 18 -34 20 -90 l3 -76 40 -23
c22 -12 43 -23 48 -23 13 0 8 245 -5 262 -22 26 -466 278 -490 278 -13 0 -129
-62 -258 -138z"/>
<path d="M2325 2981 l-150 -89 -3 -141 c-2 -101 1 -141 9 -141 6 0 29 10 50
22 l38 21 3 91 3 91 105 63 c58 34 112 62 120 62 8 -1 62 -29 120 -63 l105
-63 3 -132 c1 -73 0 -132 -3 -132 -4 0 -53 27 -109 60 -57 33 -109 60 -117 60
-15 0 -253 -134 -281 -158 -10 -8 -18 -21 -18 -28 0 -15 272 -174 299 -174 17
0 141 67 141 76 0 2 -18 15 -39 30 -36 23 -43 25 -74 13 -32 -11 -38 -10 -91
20 -48 28 -55 35 -45 48 18 21 84 53 111 53 13 0 68 -27 123 -59 l100 -59 45
25 c25 15 48 31 52 37 4 6 8 90 8 186 0 96 -4 180 -8 186 -13 20 -304 184
-326 184 -11 -1 -88 -41 -171 -89z"/>
<path d="M1527 1832 c-14 -15 -17 -40 -17 -120 0 -141 1 -142 160 -142 l120 0
0 30 0 30 -116 0 -115 0 3 28 3 27 113 3 c112 3 112 3 112 27 l0 25 -116 0
-115 0 3 28 3 27 113 3 c112 3 112 3 112 27 l0 25 -123 0 c-107 0 -126 -2
-140 -18z"/>
<path d="M1850 1827 c0 -14 18 -40 45 -67 l44 -44 -44 -47 c-53 -56 -61 -99
-20 -99 14 0 25 6 25 13 0 7 20 33 45 57 l45 44 45 -44 c25 -24 45 -50 45 -57
0 -7 11 -13 25 -13 21 0 25 5 25 28 0 20 -13 41 -45 72 l-45 44 45 46 c52 53
60 90 20 90 -14 0 -25 -6 -25 -13 0 -7 -19 -32 -43 -55 l-43 -43 -53 56 c-56
59 -91 71 -91 32z"/>
<path d="M2190 1825 c0 -24 3 -25 55 -25 l55 0 0 -85 0 -85 -55 0 c-54 0 -55
0 -55 -30 l0 -30 140 0 140 0 0 30 c0 30 -1 30 -55 30 l-55 0 0 85 0 85 55 0
c52 0 55 1 55 25 l0 25 -140 0 -140 0 0 -25z"/>
<path d="M2530 1825 c0 -24 3 -25 55 -25 l55 0 0 -115 0 -115 30 0 30 0 0 115
0 115 55 0 c52 0 55 1 55 25 l0 25 -140 0 -140 0 0 -25z"/>
<path d="M2886 1834 c-13 -12 -16 -39 -16 -124 0 -138 2 -140 142 -140 134 0
138 4 138 143 0 136 -1 137 -143 137 -83 0 -109 -3 -121 -16z m212 -121 l3
-83 -91 0 -90 0 0 85 0 86 88 -3 87 -3 3 -82z"/>
<path d="M3210 1710 l0 -140 25 0 c22 0 24 4 27 57 2 34 8 58 15 61 7 2 42
-24 76 -57 54 -52 69 -61 100 -61 34 0 37 2 37 30 0 27 -3 30 -33 30 -22 0
-41 8 -55 23 -30 32 -28 37 17 37 53 0 71 20 71 79 0 74 -13 81 -158 81 l-122
0 0 -140z m228 58 l3 -28 -90 0 -91 0 0 30 0 31 88 -3 c87 -3 87 -3 90 -30z"/>
</g>
</svg>
