<?xml version="1.0" standalone="no"?>
<!DOCTYPE svg PUBLIC "-//W3C//DTD SVG 20010904//EN"
 "http://www.w3.org/TR/2001/REC-SVG-20010904/DTD/svg10.dtd">
<svg version="1.0" xmlns="http://www.w3.org/2000/svg"
 width="721.000000pt" height="420.000000pt" viewBox="0 0 721.000000 420.000000"
 preserveAspectRatio="xMidYMid meet">

<g transform="translate(0.000000,420.000000) scale(0.100000,-0.100000)"
fill="#000000" stroke="none">
<path d="M2937 3354 c-4 -4 -18 -9 -30 -11 -12 -1 -38 -5 -57 -9 -19 -3 -37
-5 -39 -4 -9 4 -21 -28 -21 -57 0 -25 4 -31 15 -27 8 4 15 1 15 -5 0 -6 4 -11
8 -11 4 0 8 12 7 28 0 26 3 27 58 33 32 4 60 9 63 12 4 3 2 18 -3 32 -4 14
-12 23 -16 19z"/>
<path d="M6351 3275 c-62 -53 -62 -139 1 -189 32 -24 32 -26 3 -76 -8 -14 -15
-41 -15 -61 l0 -37 -76 -4 c-41 -2 -78 -8 -82 -13 -4 -6 -20 -16 -35 -23 -28
-12 -57 -63 -57 -102 0 -13 -7 -20 -19 -20 -26 0 -47 -26 -33 -43 6 -7 12 -40
14 -72 l3 -60 110 0 110 0 3 63 c2 34 7 62 12 62 20 0 9 37 -14 48 -15 7 -25
21 -28 41 -4 29 -2 31 26 31 17 0 41 3 52 6 18 5 22 0 28 -31 6 -31 -1 -59
-44 -166 l-52 -129 4 -136 c3 -120 6 -138 23 -150 25 -18 40 -18 60 3 15 14
16 32 10 137 -5 112 -4 123 14 146 l21 25 0 -34 c0 -24 19 -67 62 -140 34 -58
68 -114 76 -123 28 -33 82 -17 82 24 0 9 -28 63 -61 118 l-61 102 12 91 c14
107 24 259 24 370 1 74 -1 80 -27 103 l-27 23 35 33 c45 41 55 90 30 142 -33
68 -126 89 -184 41z m152 -25 c44 -49 28 -139 -28 -160 -32 -12 -32 -44 -1
-58 33 -15 41 -61 31 -171 -4 -47 -7 -101 -6 -120 1 -19 -6 -87 -14 -152 l-16
-119 62 -104 c61 -106 70 -141 35 -141 -25 0 -155 216 -157 260 0 17 -4 41 -8
55 -7 24 -8 24 -37 -19 -28 -44 -29 -48 -29 -170 0 -122 -1 -126 -22 -129 -29
-4 -32 10 -34 158 l-1 125 50 127 c40 100 50 134 45 162 -5 32 -3 36 16 36 16
0 29 16 56 70 38 76 43 101 21 120 -28 22 -60 7 -85 -40 l-23 -45 6 40 c3 22
12 45 21 51 23 17 18 49 -11 64 -29 16 -54 58 -54 92 0 31 35 87 63 98 38 16
89 3 120 -30z m-47 -255 c3 -8 -7 -44 -24 -79 l-30 -64 -79 -7 c-134 -11 -135
-11 -131 18 2 17 10 23 38 24 136 10 134 9 163 68 26 54 52 70 63 40z m-262
-177 c9 -12 16 -33 16 -45 0 -20 -5 -23 -40 -23 -39 0 -40 1 -34 28 16 64 33
76 58 40z"/>
<path d="M4262 3258 c-9 -9 -12 -121 -12 -445 0 -417 1 -433 19 -443 11 -5 75
-10 143 -11 l123 0 29 -60 c22 -47 39 -68 74 -90 25 -16 53 -29 61 -29 9 0 -2
9 -24 19 -73 33 -70 20 -70 358 0 273 1 300 15 273 11 -25 12 -35 2 -50 -10
-16 -9 -18 3 -14 9 4 22 1 30 -6 12 -10 15 -40 15 -146 0 -83 4 -134 10 -134
6 0 10 30 10 69 0 49 4 72 15 81 29 24 45 -5 45 -81 0 -38 4 -69 10 -69 13 0
15 88 12 448 l-3 312 -80 0 c-62 0 -81 3 -85 15 -5 12 -33 15 -168 15 -113 0
-166 -4 -174 -12z m372 -253 c2 -7 -5 -20 -17 -28 -22 -14 -23 -14 -19 18 4
34 24 39 36 10z m-87 -11 c-3 -3 -12 -4 -19 -1 -8 3 -5 6 6 6 11 1 17 -2 13
-5z m-36 -71 c13 -16 12 -17 -3 -4 -17 13 -22 21 -14 21 2 0 10 -8 17 -17z
m-50 -170 c13 -16 12 -17 -3 -4 -17 13 -22 21 -14 21 2 0 10 -8 17 -17z m40
-141 c-7 -2 -18 1 -23 6 -8 8 -4 9 13 5 13 -4 18 -8 10 -11z"/>
<path d="M3063 3245 c0 -8 4 -12 9 -9 4 3 8 9 8 15 0 5 -4 9 -8 9 -5 0 -9 -7
-9 -15z"/>
<path d="M2967 3212 c-23 -25 -21 -42 3 -42 11 0 20 -4 20 -8 0 -5 7 -9 15 -9
18 0 18 0 1 42 -17 41 -18 41 -39 17z"/>
<path d="M5450 3213 c0 -5 4 -14 9 -21 6 -10 10 -9 14 7 3 14 0 21 -9 21 -8 0
-14 -3 -14 -7z"/>
<path d="M5419 3117 c-23 -33 -37 -77 -42 -133 l-4 -51 64 -6 c82 -8 195 2
188 17 -3 6 -8 18 -11 27 -4 13 -15 15 -52 11 -26 -2 -51 -8 -56 -12 -10 -10
-73 48 -77 70 -1 8 1 32 6 53 9 46 5 52 -16 24z"/>
<path d="M2822 3108 c-14 -14 -16 -48 -3 -48 9 0 25 49 18 56 -2 2 -9 -2 -15
-8z"/>
<path d="M2796 3035 c-9 -25 -7 -55 4 -55 14 0 24 50 13 61 -7 7 -12 5 -17 -6z"/>
<path d="M2690 2911 c0 -16 6 -34 14 -40 35 -29 26 -181 -15 -263 -12 -23 -15
-39 -9 -43 27 -17 77 166 65 242 -6 39 -4 43 14 43 14 0 27 -13 42 -42 18 -35
21 -53 16 -112 -3 -39 -9 -81 -12 -93 -4 -13 -3 -23 2 -23 16 0 33 72 33 137
0 43 -7 73 -24 106 -13 26 -20 50 -15 53 16 9 10 22 -13 30 -13 4 -25 7 -28 7
-3 -1 -14 6 -25 13 -31 22 -45 17 -45 -15z"/>
<path d="M170 2690 l0 -150 25 0 c24 0 25 3 25 60 0 57 1 60 25 60 24 0 25 -3
25 -60 0 -57 1 -60 25 -60 l25 0 0 150 0 150 -25 0 c-24 0 -25 -2 -25 -65 0
-63 -1 -65 -25 -65 -24 0 -25 2 -25 65 0 63 -1 65 -25 65 l-25 0 0 -150z"/>
<path d="M920 2690 l0 -150 63 0 c36 0 68 5 75 12 17 17 17 259 0 276 -7 7
-39 12 -75 12 l-63 0 0 -150z m100 0 c0 -93 -1 -100 -20 -100 -19 0 -20 7 -20
100 0 93 1 100 20 100 19 0 20 -7 20 -100z"/>
<path d="M372 2788 c-16 -16 -16 -220 0 -236 18 -18 103 -15 122 4 23 22 23
206 0 228 -19 19 -104 22 -122 4z m88 -118 c0 -79 0 -80 -25 -80 -25 0 -25 1
-25 80 0 79 0 80 25 80 25 0 25 -1 25 -80z"/>
<path d="M544 2773 c3 -15 10 -64 16 -108 17 -125 17 -125 49 -125 27 0 29 3
41 65 7 36 16 65 20 65 4 0 13 -29 20 -65 12 -62 14 -65 41 -65 32 0 32 0 49
125 6 44 13 93 16 108 6 26 4 28 -23 25 -27 -3 -28 -5 -37 -78 l-9 -75 -12 50
c-7 28 -16 62 -19 78 -4 18 -13 27 -26 27 -13 0 -22 -9 -26 -27 -3 -16 -12
-50 -19 -78 l-12 -50 -9 75 c-9 73 -10 75 -37 78 -27 3 -29 1 -23 -25z"/>
<path d="M1126 2784 c-23 -22 -23 -206 0 -228 19 -19 104 -22 122 -4 16 16 16
220 0 236 -18 18 -103 15 -122 -4z m84 -114 c0 -79 0 -80 -25 -80 -25 0 -25 1
-25 80 0 79 0 80 25 80 25 0 25 -1 25 -80z"/>
<path d="M1294 2787 c-2 -7 -3 -65 -2 -128 l3 -114 78 -3 c77 -3 77 -3 77 23
0 23 -3 25 -50 25 -47 0 -50 2 -50 25 0 22 4 25 35 25 31 0 35 3 35 25 0 22
-4 25 -35 25 -32 0 -35 2 -35 30 0 29 1 30 50 30 47 0 50 2 50 25 0 24 -2 25
-75 25 -53 0 -77 -4 -81 -13z"/>
<path d="M1497 2782 c-11 -12 -17 -36 -17 -64 l0 -46 50 -17 c42 -14 50 -21
50 -41 0 -17 -5 -24 -20 -24 -11 0 -23 7 -26 15 -4 8 -17 15 -30 15 -19 0 -24
-5 -24 -23 0 -36 30 -57 81 -57 25 0 50 5 57 12 7 7 12 37 12 68 l0 56 -47 15
c-36 11 -48 20 -48 34 0 28 41 33 48 6 3 -13 13 -21 26 -21 17 0 21 6 21 33 0
18 -5 38 -12 45 -19 19 -102 15 -121 -6z"/>
<path d="M4818 2608 c7 -7 12 -38 12 -70 0 -37 4 -58 11 -58 8 0 10 17 5 54
-7 65 -14 86 -29 86 -7 0 -7 -4 1 -12z"/>
<path d="M2793 2563 c-7 -3 -13 -11 -13 -19 0 -10 13 -14 47 -14 26 0 43 4 38
8 -18 15 -60 29 -72 25z"/>
<path d="M2660 2535 c0 -11 12 -15 48 -14 l47 1 -30 13 c-40 19 -65 18 -65 0z"/>
<path d="M4903 2415 c0 -33 2 -45 4 -27 2 18 2 45 0 60 -2 15 -4 0 -4 -33z"/>
<path d="M670 2310 l0 -150 75 0 c73 0 75 1 75 25 0 23 -3 25 -50 25 l-50 0 0
35 c0 34 1 35 40 35 36 0 40 3 40 25 0 23 -4 25 -40 25 l-40 0 0 40 0 40 50 0
c47 0 50 2 50 25 0 24 -2 25 -75 25 l-75 0 0 -150z"/>
<path d="M226 2412 c-2 -4 -16 -55 -31 -112 -14 -58 -28 -113 -31 -123 -5 -15
-1 -18 23 -15 20 2 29 9 31 26 3 20 8 23 40 20 30 -2 38 -8 40 -25 3 -17 10
-23 28 -23 29 0 29 1 3 103 -42 168 -37 157 -69 157 -16 0 -31 -4 -34 -8z m49
-129 c6 -29 4 -33 -15 -33 -20 0 -22 4 -16 31 3 17 6 39 6 48 1 14 2 14 9 1 5
-8 12 -30 16 -47z"/>
<path d="M380 2290 l0 -130 25 0 c24 0 25 2 25 68 l1 67 35 -67 c25 -50 40
-68 54 -68 19 0 20 7 20 131 0 130 0 130 -22 127 -20 -3 -24 -10 -28 -62 l-5
-59 -29 61 c-24 50 -34 62 -53 62 -23 0 -23 -1 -23 -130z"/>
<path d="M872 2408 c-7 -7 -12 -35 -12 -64 l0 -52 50 -17 c42 -14 50 -21 50
-41 0 -19 -5 -24 -25 -24 -16 0 -25 6 -25 15 0 9 -9 15 -25 15 -21 0 -25 -5
-25 -28 0 -40 17 -52 71 -52 65 0 81 18 77 84 l-3 51 -47 15 c-39 12 -48 19
-48 38 0 29 33 30 52 0 9 -14 20 -19 31 -15 21 8 22 51 1 71 -19 19 -104 22
-122 4z"/>
<path d="M1059 2403 c-19 -22 -24 -180 -7 -213 11 -21 22 -25 65 -28 44 -3 53
0 67 20 9 12 16 35 16 50 0 23 -4 28 -25 28 -20 0 -25 -5 -25 -25 0 -20 -5
-25 -25 -25 -25 0 -25 1 -25 80 0 79 0 80 25 80 20 0 25 -5 25 -25 0 -20 5
-25 25 -25 21 0 25 5 25 28 0 49 -25 72 -79 72 -33 0 -53 -5 -62 -17z"/>
<path d="M1230 2290 l0 -130 25 0 c23 0 25 4 25 40 0 32 4 40 19 40 14 0 20
-10 25 -40 5 -34 10 -40 31 -40 27 0 30 9 16 57 -6 20 -6 35 0 38 13 9 11 139
-3 153 -7 7 -39 12 -75 12 l-63 0 0 -130z m100 40 c0 -36 -2 -40 -25 -40 -22
0 -25 4 -25 40 0 36 3 40 25 40 23 0 25 -4 25 -40z"/>
<path d="M1432 2408 c-8 -8 -12 -49 -12 -118 0 -69 4 -110 12 -118 18 -18 103
-15 122 4 23 22 23 206 0 228 -19 19 -104 22 -122 4z m88 -118 c0 -79 0 -80
-25 -80 -25 0 -25 1 -25 80 0 79 0 80 25 80 25 0 25 -1 25 -80z"/>
<path d="M1610 2393 c0 -16 7 -71 15 -123 8 -52 15 -98 15 -102 0 -5 13 -8 29
-8 25 0 30 5 36 33 4 17 12 50 18 72 l10 40 16 -70 c16 -67 18 -70 46 -70 l30
0 17 110 c22 147 22 145 -6 145 -26 0 -36 -21 -36 -77 0 -70 -14 -69 -30 2
-13 57 -21 71 -37 73 -18 3 -23 -6 -39 -75 l-18 -78 -9 78 c-9 72 -11 77 -33
77 -20 0 -24 -5 -24 -27z"/>
<path d="M4892 2320 c0 -14 2 -19 5 -12 2 6 2 18 0 25 -3 6 -5 1 -5 -13z"/>
<path d="M4855 2233 c-11 -13 -38 -30 -60 -38 -22 -8 -32 -14 -22 -15 33 0
121 61 106 74 -2 2 -13 -8 -24 -21z"/>
<path d="M4290 2065 l0 -65 35 0 c19 0 35 5 35 10 0 6 -9 10 -20 10 -11 0 -20
7 -20 15 0 8 7 15 15 15 8 0 15 5 15 10 0 6 -7 10 -15 10 -8 0 -15 9 -15 20 0
13 7 20 20 20 11 0 20 5 20 10 0 6 -16 10 -35 10 l-35 0 0 -65z"/>
<path d="M4377 2103 c-14 -13 -6 -43 13 -53 11 -6 20 -16 20 -22 0 -7 -4 -7
-14 1 -11 9 -16 9 -21 1 -11 -17 9 -32 36 -28 33 4 40 53 10 61 -12 3 -21 11
-21 17 0 10 3 10 14 1 16 -13 32 2 21 19 -7 11 -48 14 -58 3z"/>
<path d="M4454 2096 c-3 -8 -4 -31 -2 -52 3 -34 6 -39 31 -42 27 -3 48 21 32
36 -4 4 -10 1 -12 -5 -9 -26 -23 -12 -23 23 0 32 2 35 15 24 18 -15 30 -7 22
15 -8 19 -56 20 -63 1z"/>
<path d="M4530 2056 c0 -31 5 -56 10 -56 6 0 10 7 10 15 0 8 5 15 10 15 6 0
10 -7 10 -15 0 -8 6 -15 13 -15 8 0 12 17 12 53 0 51 0 52 -32 55 l-33 3 0
-55z m45 4 c-5 -8 -11 -8 -17 -2 -6 6 -7 16 -3 22 5 8 11 8 17 2 6 -6 7 -16 3
-22z"/>
<path d="M4614 2097 c-3 -8 -4 -32 -2 -53 3 -36 5 -39 33 -39 29 0 30 1 30 50
0 47 -2 50 -28 53 -17 2 -29 -2 -33 -11z m44 -48 c-1 -13 -7 -23 -13 -22 -13
3 -18 30 -11 50 10 24 29 1 24 -28z"/>
<path d="M4696 2078 c11 -68 15 -79 27 -75 6 2 14 14 18 28 l6 24 8 -27 c8
-31 35 -38 35 -10 0 9 3 34 6 55 5 24 3 37 -5 37 -6 0 -11 -9 -11 -20 0 -11
-4 -20 -10 -20 -5 0 -10 9 -10 21 0 28 -23 19 -31 -12 -7 -24 -7 -24 -8 4 -1
17 -7 27 -16 27 -11 0 -13 -8 -9 -32z"/>
<path d="M225 2058 c-20 -86 -55 -253 -55 -265 0 -7 11 -13 24 -13 19 0 26 7
31 31 6 27 10 30 38 27 27 -2 33 -8 35 -30 3 -24 8 -28 34 -28 21 0 29 4 25
13 -3 7 -18 75 -33 150 l-29 137 -32 0 c-26 0 -34 -5 -38 -22z m54 -160 c1
-12 -6 -18 -19 -18 -19 0 -20 4 -15 38 13 72 18 80 26 37 4 -22 8 -48 8 -57z"/>
<path d="M2647 2074 c-4 -4 -7 -20 -7 -35 0 -18 6 -28 20 -32 11 -3 20 -13 19
-24 0 -10 -3 -13 -6 -5 -7 19 -35 15 -31 -5 2 -13 13 -18 33 -18 26 0 30 4 33
31 2 25 -1 33 -17 37 -12 3 -21 13 -20 24 0 10 3 13 6 6 7 -20 35 -16 31 5 -3
17 -48 29 -61 16z"/>
<path d="M6270 2016 l0 -66 30 0 31 0 -3 63 c-3 59 -4 62 -30 65 l-28 3 0 -65z
m40 24 c0 -11 -4 -20 -10 -20 -5 0 -10 9 -10 20 0 11 5 20 10 20 6 0 10 -9 10
-20z m0 -55 c0 -8 -4 -15 -10 -15 -5 0 -10 7 -10 15 0 8 5 15 10 15 6 0 10 -7
10 -15z"/>
<path d="M2720 2005 l0 -55 35 0 c19 0 35 5 35 10 0 6 -9 10 -20 10 -11 0 -20
5 -20 10 0 6 7 10 15 10 8 0 15 5 15 10 0 6 -7 10 -15 10 -8 0 -15 7 -15 15 0
8 9 15 20 15 11 0 20 5 20 10 0 6 -16 10 -35 10 l-35 0 0 -55z"/>
<path d="M2800 2005 c0 -54 0 -55 30 -55 17 0 30 5 30 10 0 6 -7 10 -15 10
-11 0 -15 12 -15 45 0 33 -4 45 -15 45 -12 0 -15 -13 -15 -55z"/>
<path d="M2870 2005 c0 -54 0 -55 30 -55 17 0 30 5 30 10 0 6 -7 10 -15 10
-11 0 -15 12 -15 45 0 33 -4 45 -15 45 -12 0 -15 -13 -15 -55z"/>
<path d="M2940 2005 l0 -55 35 0 c19 0 35 5 35 10 0 6 -9 10 -20 10 -11 0 -20
5 -20 10 0 6 7 10 15 10 8 0 15 5 15 10 0 6 -7 10 -15 10 -8 0 -15 7 -15 15 0
8 9 15 20 15 11 0 20 5 20 10 0 6 -16 10 -35 10 l-35 0 0 -55z"/>
<path d="M3020 2006 c0 -43 3 -56 15 -56 8 0 15 8 15 18 1 16 1 16 11 0 18
-31 26 -20 25 35 -1 51 -1 52 -33 55 l-33 3 0 -55z m50 14 c0 -11 -4 -20 -10
-20 -5 0 -10 9 -10 20 0 11 5 20 10 20 6 0 10 -9 10 -20z"/>
<path d="M6350 2005 c0 -54 0 -55 30 -55 30 0 30 1 30 55 0 30 -4 55 -10 55
-5 0 -10 -20 -10 -45 0 -25 -4 -45 -10 -45 -5 0 -10 20 -10 45 0 25 -4 45 -10
45 -5 0 -10 -25 -10 -55z"/>
<path d="M6436 2025 c7 -19 14 -44 14 -55 0 -36 15 -21 32 33 18 56 15 73 -8
43 -12 -17 -14 -17 -20 -3 -3 10 -12 17 -20 17 -11 0 -10 -6 2 -35z"/>
<path d="M6510 2005 l0 -55 35 0 c19 0 35 5 35 10 0 6 -9 10 -20 10 -11 0 -20
5 -20 10 0 6 7 10 15 10 8 0 15 5 15 10 0 6 -7 10 -15 10 -8 0 -15 7 -15 15 0
8 9 15 20 15 11 0 20 5 20 10 0 6 -16 10 -35 10 l-35 0 0 -55z"/>
<path d="M6590 2006 c0 -31 5 -56 10 -56 6 0 10 7 10 15 0 8 5 15 10 15 6 0
10 -7 10 -15 0 -8 6 -15 13 -15 8 0 12 17 12 53 0 51 0 52 -32 55 l-33 3 0
-55z m45 4 c-5 -8 -11 -8 -17 -2 -6 6 -7 16 -3 22 5 8 11 8 17 2 6 -6 7 -16 3
-22z"/>
<path d="M406 2024 c-12 -12 -16 -38 -16 -114 0 -117 8 -130 79 -130 57 0 71
12 71 62 0 34 -3 38 -25 38 -20 0 -25 -5 -25 -25 0 -20 -5 -25 -25 -25 -25 0
-25 1 -25 80 0 79 0 80 25 80 20 0 25 -5 25 -25 0 -20 5 -25 25 -25 22 0 25 4
25 38 0 21 -5 43 -12 50 -18 18 -103 15 -122 -4z"/>
<path d="M589 2023 c-19 -22 -24 -180 -7 -213 11 -21 22 -25 65 -28 44 -3 53
0 67 20 9 12 16 35 16 50 0 23 -4 28 -25 28 -20 0 -25 -5 -25 -25 0 -20 -5
-25 -25 -25 -25 0 -25 1 -25 80 0 79 0 80 25 80 20 0 25 -5 25 -25 0 -20 5
-25 25 -25 21 0 25 5 25 28 0 49 -25 72 -79 72 -33 0 -53 -5 -62 -17z"/>
<path d="M776 2024 c-23 -22 -23 -206 0 -228 19 -19 104 -22 122 -4 16 16 16
220 0 236 -18 18 -103 15 -122 -4z m84 -115 c0 -78 -1 -80 -22 -77 -21 3 -23
9 -26 67 -4 76 1 91 28 91 18 0 20 -6 20 -81z"/>
<path d="M950 1926 c0 -91 3 -118 16 -130 19 -19 104 -22 122 -4 8 8 12 52 12
130 l0 118 -25 0 -25 0 0 -106 c0 -104 0 -105 -22 -102 -22 3 -23 8 -26 106
-3 101 -3 102 -27 102 l-25 0 0 -114z"/>
<path d="M1134 2027 c-2 -7 -3 -65 -2 -128 3 -109 4 -114 25 -117 21 -3 22 1
25 65 l3 68 35 -67 c27 -54 39 -68 57 -68 23 0 23 1 23 130 l0 130 -25 0 c-23
0 -24 -3 -27 -67 l-3 -68 -35 68 c-23 45 -40 67 -52 67 -10 0 -21 -6 -24 -13z"/>
<path d="M1324 2025 c-8 -20 4 -35 26 -35 18 0 20 -9 22 -102 l3 -103 28 -3
27 -3 0 105 0 106 25 0 c20 0 25 5 25 25 0 24 -2 25 -75 25 -57 0 -77 -4 -81
-15z"/>
<path d="M4300 1900 c-7 -33 -9 -64 -5 -68 4 -4 10 -1 12 6 5 14 33 16 33 2 0
-5 7 -10 16 -10 10 0 14 6 10 18 -3 9 -8 31 -11 47 -12 56 -16 65 -29 65 -8 0
-18 -24 -26 -60z m33 -10 c3 -11 1 -20 -4 -20 -5 0 -9 9 -9 20 0 11 2 20 4 20
2 0 6 -9 9 -20z"/>
<path d="M4384 1926 c-3 -8 -4 -31 -2 -52 2 -32 7 -40 27 -42 13 -2 28 2 32
10 13 19 11 28 -6 28 -8 0 -15 -4 -15 -10 0 -5 -4 -10 -10 -10 -5 0 -10 16
-10 35 0 19 5 35 10 35 6 0 10 -4 10 -10 0 -5 7 -10 16 -10 11 0 14 5 10 16
-3 9 -6 18 -6 20 0 11 -51 2 -56 -10z"/>
<path d="M4464 1926 c-3 -8 -4 -31 -2 -52 2 -32 7 -40 27 -42 13 -2 28 2 32
10 13 19 11 28 -6 28 -8 0 -15 -4 -15 -10 0 -5 -4 -10 -10 -10 -5 0 -10 16
-10 35 0 19 5 35 10 35 6 0 10 -4 10 -10 0 -5 7 -10 16 -10 11 0 14 5 10 16
-3 9 -6 18 -6 20 0 11 -51 2 -56 -10z"/>
<path d="M4544 1927 c-3 -8 -4 -32 -2 -53 3 -36 5 -39 33 -39 29 0 30 1 30 50
0 47 -2 50 -28 53 -17 2 -29 -2 -33 -11z m44 -48 c-1 -13 -7 -23 -13 -22 -13
3 -18 30 -11 50 10 24 29 1 24 -28z"/>
<path d="M4622 1888 c3 -51 4 -53 33 -53 29 0 30 1 33 54 4 67 -20 67 -29 0
l-6 -44 -1 48 c-2 35 -6 47 -18 47 -12 0 -14 -10 -12 -52z"/>
<path d="M4700 1885 c0 -57 16 -76 22 -27 l4 27 14 -27 c20 -42 30 -34 30 27
0 30 -4 55 -10 55 -5 0 -10 -12 -10 -27 l-1 -28 -15 28 c-23 42 -34 33 -34
-28z"/>
<path d="M4780 1930 c0 -5 5 -10 10 -10 6 0 10 -20 10 -45 0 -33 4 -45 15 -45
11 0 15 12 15 45 0 25 5 45 10 45 6 0 10 5 10 10 0 6 -16 10 -35 10 -19 0 -35
-4 -35 -10z"/>
<path d="M1046 1684 c-9 -8 -16 -31 -16 -50 0 -29 3 -34 24 -34 18 0 25 6 28
23 2 14 11 23 26 25 19 3 22 -1 22 -30 0 -25 -8 -42 -30 -63 -36 -34 -37 -68
-3 -73 16 -2 26 3 32 20 5 13 18 32 30 42 17 15 21 31 21 76 0 31 -5 61 -12
68 -18 18 -103 15 -122 -4z"/>
<path d="M171 1643 c0 -10 8 -67 17 -128 l17 -110 30 0 c28 0 30 3 46 70 l16
70 10 -40 c6 -22 14 -55 18 -72 6 -28 11 -33 36 -33 16 0 29 3 29 8 0 4 9 62
19 130 l18 122 -27 0 c-27 0 -28 -2 -37 -77 l-9 -78 -18 78 c-16 69 -21 78
-39 75 -16 -2 -24 -17 -37 -73 l-17 -70 -7 40 c-4 22 -9 55 -12 73 -4 26 -9
32 -29 32 -17 0 -25 -5 -24 -17z"/>
<path d="M472 1648 c-16 -16 -16 -220 0 -236 18 -18 103 -15 122 4 23 22 23
206 0 228 -19 19 -104 22 -122 4z m88 -118 c0 -79 0 -80 -25 -80 -25 0 -25 1
-25 80 0 79 0 80 25 80 25 0 25 -1 25 -80z"/>
<path d="M640 1530 l0 -130 25 0 c23 0 25 4 25 40 0 32 4 40 19 40 14 0 20
-10 25 -40 5 -34 10 -40 31 -40 27 0 30 9 16 57 -6 20 -6 35 0 38 13 9 11 139
-3 153 -7 7 -39 12 -75 12 l-63 0 0 -130z m100 40 c0 -36 -2 -40 -25 -40 -22
0 -25 4 -25 40 0 36 3 40 25 40 23 0 25 -4 25 -40z"/>
<path d="M830 1530 l0 -130 25 0 c22 0 25 5 25 33 0 60 16 65 41 14 19 -39 28
-47 51 -47 l28 0 -35 70 -35 70 30 53 c36 65 36 67 6 67 -18 0 -31 -12 -53
-47 l-28 -48 -3 48 c-3 42 -5 47 -28 47 l-24 0 0 -130z"/>
<path d="M2971 1512 c-1 -7 -4 -11 -9 -8 -4 2 -32 -2 -62 -10 -30 -8 -60 -12
-66 -10 -6 2 -11 -1 -12 -7 -1 -7 -4 -25 -7 -42 -5 -25 -2 -32 19 -42 25 -10
26 -9 26 17 0 31 18 40 86 40 30 0 44 5 48 17 4 9 3 19 -2 22 -5 3 -12 13 -15
21 -4 10 -6 11 -6 2z"/>
<path d="M3511 1483 c7 -10 14 -19 15 -21 1 -1 4 6 7 18 4 15 0 20 -15 20 -18
0 -19 -2 -7 -17z"/>
<path d="M6358 1454 c-56 -30 -75 -120 -39 -181 11 -17 29 -34 40 -38 26 -8
27 -22 4 -48 -10 -10 -20 -42 -23 -70 l-5 -52 -78 -8 c-56 -5 -89 -14 -117
-32 -45 -29 -57 -47 -66 -104 -5 -34 -10 -41 -30 -41 -27 0 -41 -17 -25 -33 6
-6 11 -36 11 -66 0 -31 4 -62 8 -69 6 -9 37 -12 118 -10 l109 3 3 60 c2 36 9
66 19 77 17 20 10 38 -16 38 -19 0 -31 26 -31 68 0 20 5 22 55 22 l55 0 0 -44
c0 -30 -17 -87 -50 -172 -49 -124 -50 -130 -49 -228 0 -56 4 -123 7 -151 6
-42 11 -51 35 -59 21 -8 31 -6 44 6 13 14 16 38 14 147 -2 92 2 135 11 150 18
30 28 26 28 -11 0 -34 133 -273 161 -288 21 -12 63 11 67 36 2 12 -26 69 -62
131 l-66 111 14 109 c8 59 18 185 22 280 l7 172 -31 30 -32 29 31 23 c35 28
58 86 51 130 -3 17 -19 46 -39 65 -29 29 -40 34 -81 34 -26 -1 -59 -7 -74 -16z
m139 -25 c8 -7 21 -26 30 -42 23 -45 10 -91 -37 -129 -46 -36 -50 -54 -15 -70
27 -12 35 -32 37 -88 2 -60 -14 -290 -27 -400 l-14 -105 65 -108 c35 -60 64
-117 64 -127 0 -19 -25 -34 -41 -24 -5 3 -39 56 -76 117 -52 88 -69 126 -78
177 l-11 65 -33 -45 -33 -45 4 -129 c3 -113 1 -130 -14 -140 -34 -21 -43 7
-46 152 l-4 137 52 130 c38 98 50 140 48 171 -3 37 0 43 23 51 18 7 35 30 57
78 38 81 41 112 10 124 -31 12 -54 -2 -77 -47 l-20 -37 -1 33 c0 20 7 38 20
49 26 23 26 60 0 68 -57 18 -80 117 -39 169 34 43 112 51 156 15z m-39 -286
c3 -20 -49 -137 -65 -146 -5 -2 -54 -8 -109 -11 -92 -7 -102 -6 -108 11 -11
29 21 43 98 43 39 0 76 4 82 8 6 4 21 29 33 57 30 67 62 85 69 38z m-274 -185
c9 -12 16 -35 16 -50 0 -26 -3 -28 -40 -28 -38 0 -40 2 -40 31 0 63 35 89 64
47z"/>
<path d="M1074 1436 c-9 -22 4 -36 32 -36 21 0 25 4 22 23 -4 26 -45 37 -54
13z"/>
<path d="M4142 1418 c-17 -17 -17 -919 0 -936 8 -8 57 -12 152 -12 l141 0 19
-47 c53 -128 174 -185 282 -133 46 23 70 52 79 96 3 16 2 22 -1 14 -28 -67
-39 -81 -81 -101 -58 -28 -126 -23 -183 15 l-41 27 6 267 c4 147 8 273 11 280
2 7 14 12 26 10 23 -3 23 -6 26 -150 3 -153 19 -204 24 -77 2 57 7 74 21 83
29 18 47 -17 47 -91 0 -84 18 -81 22 5 3 64 4 67 28 67 24 0 25 -3 28 -67 2
-38 6 -68 10 -68 11 0 1 123 -11 138 -6 8 -21 12 -34 9 l-23 -4 0 333 0 334
-90 0 c-53 0 -90 4 -90 10 0 15 -353 13 -368 -2z m388 -290 c-25 -20 -36 -22
-45 -8 -3 6 1 7 9 4 13 -5 16 1 16 26 0 33 0 33 21 14 l21 -19 -22 -17z m-203
-40 c-3 -8 -6 -5 -6 6 -1 11 2 17 5 13 3 -3 4 -12 1 -19z m164 -75 c13 -16 12
-17 -3 -4 -10 7 -18 15 -18 17 0 8 8 3 21 -13z m45 -69 c4 -23 2 -33 -10 -37
-13 -5 -16 2 -16 40 0 52 15 49 26 -3z m-175 -61 c13 -16 12 -17 -3 -4 -10 7
-18 15 -18 17 0 8 8 3 21 -13z m-46 -43 c10 -11 16 -20 13 -20 -3 0 -13 9 -23
20 -10 11 -16 20 -13 20 3 0 13 -9 23 -20z m62 -92 c-3 -8 -6 -5 -6 6 -1 11 2
17 5 13 3 -3 4 -12 1 -19z"/>
<path d="M3103 1401 c4 -28 12 -34 14 -11 1 11 -2 22 -8 25 -5 4 -8 -3 -6 -14z"/>
<path d="M2921 1394 c0 -11 3 -14 6 -6 3 7 2 16 -1 19 -3 4 -6 -2 -5 -13z"/>
<path d="M2961 1394 c0 -11 3 -14 6 -6 3 7 2 16 -1 19 -3 4 -6 -2 -5 -13z"/>
<path d="M3477 1392 c-23 -26 -37 -68 -37 -116 0 -23 -5 -47 -11 -53 -7 -7 10
-12 59 -17 86 -9 208 2 193 17 -6 6 -11 18 -11 27 0 12 -10 14 -47 11 -27 -2
-51 -8 -54 -14 -4 -6 -16 -1 -30 12 -12 11 -26 21 -30 21 -12 0 -31 58 -23 71
7 12 15 59 10 59 -2 0 -10 -8 -19 -18z"/>
<path d="M3002 1362 c-22 -14 -29 -37 -14 -45 4 -3 21 -8 39 -11 29 -7 31 -6
26 16 -4 13 -11 30 -17 39 -10 15 -13 15 -34 1z"/>
<path d="M5570 1281 c0 -60 2 -69 18 -67 14 2 18 15 20 69 3 62 1 67 -18 67
-18 0 -20 -6 -20 -69z"/>
<path d="M2847 1253 c-4 -3 -7 -18 -7 -32 1 -25 1 -25 15 -7 23 30 15 63 -8
39z"/>
<path d="M2821 1172 c-6 -12 -8 -29 -3 -43 8 -21 9 -20 22 10 16 39 -1 67 -19
33z"/>
<path d="M2710 1055 c0 -14 8 -38 18 -52 26 -41 23 -180 -6 -253 -24 -60 -26
-70 -14 -70 4 0 19 28 32 62 20 50 25 81 25 150 0 83 1 88 21 88 49 0 80 -144
50 -230 -8 -25 -11 -49 -7 -53 14 -14 41 82 41 142 0 38 -8 73 -24 107 -17 36
-21 56 -14 67 9 17 0 25 -34 31 -7 1 -27 10 -45 19 -41 22 -43 22 -43 -8z"/>
<path d="M4776 682 c-3 -5 6 -7 19 -4 23 4 24 2 28 -59 l3 -64 0 65 c-1 59 -3
65 -23 68 -11 2 -24 -1 -27 -6z"/>
<path d="M2810 665 c0 -11 12 -15 48 -15 l47 1 -34 14 c-43 19 -61 19 -61 0z"/>
<path d="M2683 655 c-8 -23 0 -27 48 -23 l44 3 -39 18 c-47 21 -45 21 -53 2z"/>
<path d="M4823 460 c0 -25 2 -35 4 -22 2 12 2 32 0 45 -2 12 -4 2 -4 -23z"/>
</g>
</svg>
