<?xml version="1.0" standalone="no"?>
<!DOCTYPE svg PUBLIC "-//W3C//DTD SVG 20010904//EN"
 "http://www.w3.org/TR/2001/REC-SVG-20010904/DTD/svg10.dtd">
<svg version="1.0" xmlns="http://www.w3.org/2000/svg"
 width="500.000000pt" height="500.000000pt" viewBox="0 0 500.000000 500.000000"
 preserveAspectRatio="xMidYMid meet">

<g transform="translate(0.000000,500.000000) scale(0.100000,-0.100000)"
fill="#000000" stroke="none">
<path d="M0 2500 l0 -2500 2500 0 2500 0 0 2500 0 2500 -2500 0 -2500 0 0
-2500z m2710 767 l195 -113 3 -247 2 -247 -40 -25 c-84 -53 -74 -55 -216 29
-85 50 -140 76 -159 76 -36 -1 -140 -60 -140 -80 0 -19 104 -80 137 -80 15 0
38 5 52 11 21 10 31 7 73 -18 26 -16 48 -36 48 -43 0 -19 -133 -98 -166 -99
-28 -1 -357 186 -374 213 -7 11 -7 21 0 32 15 23 345 214 370 214 11 0 79 -34
150 -75 72 -41 133 -75 138 -75 4 0 7 74 7 164 l0 165 -27 19 c-80 54 -245
142 -268 142 -27 0 -260 -130 -282 -158 -9 -10 -13 -52 -13 -123 l0 -107 -46
-26 c-77 -43 -75 -49 -72 155 l3 181 195 114 c107 63 204 114 215 114 12 0
108 -51 215 -113z"/>
</g>
</svg>
